<?xml version="1.0" encoding="UTF-8"?>
<svg viewBox="0 0 414.58 420" xmlns="http://www.w3.org/2000/svg">
 <defs>
  <linearGradient id="a" x1=".48852" x2=".5189" y1=".47021" y2=".53926">
   <stop stop-color="#b3b3b3" offset="0"/>
   <stop stop-color="#fff" offset=".65"/>
   <stop stop-color="#d8d8d8" offset="1"/>
  </linearGradient>
 </defs>
 <g fill-rule="evenodd">
  <path d="m367.68 97.259c-7.7046-11.666-70.054 21-103 57.942-38.874 26.197-191.3 129.01-235.51 165.63 51.033-26.283 205.44-126.11 244.79-151.58 46.908-15.796 101.42-60.328 93.715-71.993zm-10.074 6.1023c2.076 3.1433-14.919 18.015-37.924 33.209s-43.354 24.987-45.43 21.843c-2.076-3.1433 14.905-18.036 37.91-33.23s43.368-24.966 45.444-21.823z" fill="url(#a)" stroke="#000" stroke-width=".348"/>
  <path transform="rotate(183.45 268.68 184.9)" d="m227.45 273.21c1.2277 1.833-12.998-18.388 4.8716 7.1334 17.869 25.521 33.21 39.859 68.874 56.036 2.3816 1.081 5.1825 0.032867 6.2635-2.3488 1.081-2.3816 0.032837-5.1949-2.3488-6.2759-34.568-15.68-47.788-27.958-64.834-52.494s-3.6409-5.3378-4.8716-7.1831c-1.2306-1.8454-2.4938-3.7376-3.7904-5.7166-1.1587-1.7687-2.4003-3.6813-3.6785-5.6794-0.25775 0.16931-0.51208 0.32642-0.77051 0.49707-2.4377 1.61-4.7844 3.2198-7.0713 4.8095 1.254 1.9555 2.4669 3.8318 3.604 5.5675 1.2746 1.9456 2.5254 3.8216 3.7531 5.6545zm50.207-240.21c-0.63611 4.5e-4 -1.2592 0.016457-1.8766 0.037285-1.411 0.0476-2.7731 0.14601-4.0886 0.29827-10.525 1.218-18.278 6.2347-21.885 13.645-3.6064 7.4108-3.1698 16.373-0.17398 25.526 2.9958 9.1532 8.6237 18.698 16.367 27.751 1.6987 1.987 4.6866 2.2207 6.6736 0.52194 1.987-1.6987 2.2207-4.6866 0.52197-6.6736-7.0694-8.2645-12.063-16.9-14.565-24.544-2.5021-7.6449-2.436-14.101-0.32312-18.442 2.1129-4.3418 6.1636-7.4264 14.478-8.3886 8.3144-0.96223 20.66 0.70048 37.171 6.512 31.894 11.226 41.341 37.714 38.786 59.789-1.2775 11.038-5.7719 20.763-11.719 26.421-5.9473 5.6576-12.741 7.6957-21.438 4.1632-19.943-8.1009-37.93-18.928-56.881-24.557-18.951-5.6288-39.223-5.5322-61.255 8.314-11.584 7.2798-17.248 18.75-18.418 31.293-1.1694 12.542 1.7175 26.314 6.512 40.153 7.5788 21.876 20.055 43.972 30.448 60.671 2.6063-1.8465 5.2156-3.6278 7.8294-5.3439-10.169-16.402-22.221-37.881-29.342-58.434-4.5343-13.088-6.9988-25.758-6.0273-36.177 0.97147-10.419 4.9439-18.428 14.043-24.147 19.933-12.527 36.222-12.394 53.513-7.2577 17.291 5.1359 35.23 15.8 56.023 24.246 11.815 4.7991 23.464 1.5832 31.516-6.0771 8.0525-7.6602 13.113-19.316 14.602-32.187 2.9794-25.743-9.2206-57.194-45.05-69.806-14.233-5.0098-25.902-7.3142-35.443-7.3074z" fill="#7f007f" stroke-linecap="round" stroke-linejoin="round" stroke-width="23.8"/>
 </g>
</svg>
